<?xml version="1.0" encoding="utf-8"?>
<!-- Generator: Adobe Illustrator 19.2.1, SVG Export Plug-In . SVG Version: 6.00 Build 0)  -->
<svg version="1.1" id="Layer_1" xmlns="http://www.w3.org/2000/svg" xmlns:xlink="http://www.w3.org/1999/xlink" x="0px" y="0px"
	 viewBox="0 0 210 86" style="enable-background:new 0 0 210 86;" xml:space="preserve">
<style type="text/css">
	.st0{fill:#CF0A2C;}
	.st1{fill:#FFFFFF;}
</style>
<polygon class="st0" points="18.1,0 190.9,0 210,57.9 0,57.9 "/>
<path d="M15.4,48l10.3-33.9h7c6.6,0,10.4,0.8,8.7,7.9c-1,4.2-3.3,7-7.5,7.7l0,0.1c3.5,0.1,5.3,1.5,4.2,6.4l-1.7,7.1
	c-0.3,1.3-0.5,3.3,0.1,4.7h-7.9c-0.6-1.4-0.3-3.4,0.1-4.7l1.9-7.2c0.6-2.4-0.4-3.6-1.8-3.6h-1.2L23.3,48H15.4z M28.9,27.7
	c3.3,0,4.2-1.2,5-4.4c0.8-3.1,0.7-4.3-2.6-4.3L28.9,27.7z M58.9,38.8c-1.2,7.8-6.3,9.9-11.6,9.9c-5.2,0-9.5-2.1-7.8-9.9l3.5-15.4
	c1.8-7.8,6.4-9.9,11-9.9s8.5,2.1,7.2,9.9L58.9,38.8z M46.9,40.6c-0.3,1.4-0.1,2.7,1.5,2.7c1.6,0,2.3-1.3,2.6-2.7l3.5-19
	c0.3-1.4,0.1-2.7-1.4-2.7c-1.5,0-2.1,1.3-2.4,2.7L46.9,40.6z M80.3,38.8c-0.6,7.8-5.6,9.9-10.8,9.9c-5.2,0-9.7-2.1-8.5-9.9l2.3-15.4
	c1.2-7.8,5.7-9.9,10.3-9.9c4.6,0,8.6,2.1,8,9.9L80.3,38.8z M68.4,40.6c-0.2,1.4,0.1,2.7,1.7,2.7c1.6,0,2.2-1.3,2.4-2.7l2.1-19
	c0.2-1.4-0.1-2.7-1.6-2.7c-1.5,0-2,1.3-2.2,2.7L68.4,40.6z M81.5,48l2.6-33.9h14.5l-0.1,5.1h-7.6l-0.4,7.4H98l-0.1,5.1h-7.7L89.4,48
	H81.5z M105.4,48h-6.3l0.6-33.9h10.2l3.8,24.1h0.1l2.1-24.1h10l2.9,33.9h-7.1l-1.7-29h-0.1L117,48h-6.9l-4.7-29h-0.1L105.4,48z
	 M141.9,14.1l9.3,33.9h-7.8l-2-8.3h-4.2L137,48h-6.7l2-33.9H141.9z M140.2,34.5L137,19.4h-0.1l0.6,15.1H140.2z M152.8,48l-5.6-33.9
	h7c6.6,0,10.8,0.8,12.4,7.9c1,4.2,0,7-3.8,7.7l0,0.1c3.6,0.1,6,1.5,7.2,6.4l1.7,7.1c0.3,1.3,1,3.3,2.3,4.7H166
	c-1.2-1.4-1.8-3.4-2.1-4.7l-1.5-7.2c-0.5-2.4-2.1-3.6-3.4-3.6h-1.2l3,15.5H152.8z M156.8,27.7c3.3,0,3.6-1.2,2.9-4.4
	c-0.7-3.1-1.4-4.3-4.6-4.3L156.8,27.7z M179.2,48l-7.4-28.8h-5l-1.2-5.1h16.7l1.6,5.1h-5l8.2,28.8"/>
<path class="st1" d="M17.4,46l10.3-33.9h7c6.6,0,10.4,0.8,8.7,7.9c-1,4.2-3.3,7-7.5,7.7l0,0.1c3.5,0.1,5.3,1.5,4.2,6.4l-1.7,7.1
	c-0.3,1.3-0.5,3.3,0.1,4.7h-7.9c-0.6-1.4-0.3-3.4,0.1-4.7l1.9-7.2c0.6-2.4-0.4-3.6-1.8-3.6h-1.2L25.2,46H17.4z M30.8,25.7
	c3.3,0,4.2-1.2,5-4.4c0.8-3.1,0.7-4.3-2.6-4.3L30.8,25.7z M60.9,36.8c-1.2,7.8-6.3,9.9-11.6,9.9c-5.2,0-9.5-2.1-7.8-9.9l3.5-15.4
	c1.8-7.8,6.4-9.9,11-9.9c4.6,0,8.5,2.1,7.2,9.9L60.9,36.8z M48.9,38.6c-0.3,1.4-0.1,2.7,1.5,2.7c1.6,0,2.3-1.3,2.6-2.7l3.5-19
	c0.3-1.4,0.1-2.7-1.4-2.7c-1.5,0-2.1,1.3-2.4,2.7L48.9,38.6z M82.3,36.8c-0.6,7.8-5.6,9.9-10.8,9.9c-5.2,0-9.7-2.1-8.5-9.9l2.3-15.4
	c1.2-7.8,5.7-9.9,10.3-9.9c4.6,0,8.6,2.1,8,9.9L82.3,36.8z M70.3,38.6c-0.2,1.4,0.1,2.7,1.7,2.7c1.6,0,2.2-1.3,2.4-2.7l2.1-19
	c0.2-1.4-0.1-2.7-1.6-2.7c-1.5,0-2,1.3-2.2,2.7L70.3,38.6z M83.5,46l2.6-33.9h14.5l-0.1,5.1h-7.6l-0.4,7.4h7.6l-0.1,5.1h-7.7
	L91.4,46H83.5z M107.4,46h-6.3l0.6-33.9h10.2l3.8,24.1h0.1l2.1-24.1h10l2.9,33.9h-7.1l-1.7-29h-0.1L119,46h-6.9l-4.7-29h-0.1
	L107.4,46z M143.9,12.1l9.3,33.9h-7.8l-2-8.3h-4.2L139,46h-6.7l2-33.9H143.9z M142.2,32.5L139,17.4h-0.1l0.6,15.1H142.2z M154.8,46
	l-5.6-33.9h7c6.6,0,10.8,0.8,12.4,7.9c1,4.2,0,7-3.8,7.7l0,0.1c3.6,0.1,6,1.5,7.2,6.4l1.7,7.1c0.3,1.3,1,3.3,2.3,4.7h-7.9
	c-1.2-1.4-1.8-3.4-2.1-4.7l-1.5-7.2c-0.5-2.4-2.1-3.6-3.4-3.6h-1.2l3,15.5H154.8z M158.7,25.7c3.3,0,3.6-1.2,2.9-4.4
	c-0.7-3.1-1.4-4.3-4.6-4.3L158.7,25.7z M168.8,17.2l-1.2-5.1h16.7l1.6,5.1h-5l8.2,28.8h-7.9l-7.4-28.8H168.8z"/>
<g>
	<rect x="13" y="61.7" class="st0" width="183.9" height="24.3"/>
	<g>
		<path class="st1" d="M26.6,80V67.1h6.3c0.9,0,1.6,0,2.2,0.1c0.6,0.1,1.1,0.2,1.5,0.4c0.4,0.2,0.7,0.5,1,0.8c0.3,0.3,0.5,0.6,0.6,1
			c0.1,0.4,0.2,0.8,0.2,1.3c0,0.6-0.1,1.2-0.3,1.6c-0.2,0.4-0.5,0.8-0.9,1.1c-0.3,0.2-0.6,0.4-1,0.5c0.8,0.3,1.4,0.7,1.7,1
			c0.3,0.4,0.5,1,0.5,1.9l0.1,2c0,0.3,0,0.5,0.1,0.5c0.1,0.1,0.2,0.1,0.3,0.1V80h-4.3c-0.1-0.4-0.2-0.9-0.2-1.8l0-1
			c0-0.4-0.1-0.8-0.2-1c-0.1-0.2-0.3-0.4-0.6-0.5c-0.3-0.1-0.7-0.2-1.2-0.2h-1.6V80H26.6z M30.7,72.7h2c0.7,0,1.1-0.1,1.4-0.3
			c0.3-0.2,0.4-0.5,0.4-0.9c0-0.4-0.1-0.7-0.4-0.9c-0.3-0.2-0.7-0.3-1.3-0.3h-2.1V72.7z"/>
		<path class="st1" d="M45.6,70.3c1.7,0,3,0.5,4,1.4c0.9,0.9,1.4,2.1,1.4,3.6c0,1-0.2,1.8-0.6,2.5c-0.4,0.7-1,1.3-1.9,1.8
			c-0.8,0.4-1.8,0.7-2.9,0.7c-0.9,0-1.7-0.2-2.6-0.5c-0.8-0.3-1.5-0.9-2-1.6c-0.5-0.8-0.8-1.7-0.8-2.8c0-1.5,0.5-2.7,1.4-3.7
			C42.7,70.8,44,70.3,45.6,70.3z M45.7,77.8c0.3,0,0.5-0.1,0.8-0.2c0.2-0.2,0.4-0.4,0.6-0.8c0.1-0.4,0.2-0.9,0.2-1.5
			c0-0.9-0.2-1.5-0.5-2c-0.3-0.3-0.6-0.5-1.1-0.5c-0.5,0-0.8,0.2-1.2,0.6c-0.3,0.4-0.5,1-0.5,1.9c0,0.6,0.1,1.1,0.2,1.4
			c0.1,0.4,0.3,0.6,0.6,0.8C45.1,77.7,45.4,77.8,45.7,77.8z"/>
		<path class="st1" d="M57.8,70.3c1.7,0,3,0.5,4,1.4c0.9,0.9,1.4,2.1,1.4,3.6c0,1-0.2,1.8-0.6,2.5c-0.4,0.7-1,1.3-1.9,1.8
			c-0.8,0.4-1.8,0.7-2.9,0.7c-0.9,0-1.7-0.2-2.6-0.5c-0.8-0.3-1.5-0.9-2-1.6c-0.5-0.8-0.8-1.7-0.8-2.8c0-1.5,0.5-2.7,1.4-3.7
			C54.8,70.8,56.1,70.3,57.8,70.3z M57.9,77.8c0.3,0,0.5-0.1,0.8-0.2c0.2-0.2,0.4-0.4,0.6-0.8c0.1-0.4,0.2-0.9,0.2-1.5
			c0-0.9-0.2-1.5-0.5-2c-0.3-0.3-0.6-0.5-1.1-0.5c-0.5,0-0.8,0.2-1.2,0.6c-0.3,0.4-0.5,1-0.5,1.9c0,0.6,0.1,1.1,0.2,1.4
			c0.1,0.4,0.3,0.6,0.6,0.8C57.3,77.7,57.6,77.8,57.9,77.8z"/>
		<path class="st1" d="M70.7,66.7v2.4c-0.2,0-0.3,0-0.4,0c-0.5,0-0.8,0.1-1,0.3c-0.2,0.2-0.2,0.5-0.2,1v0.3h1.6v2.1h-1.6V80h-3.7
			v-7.2h-1.2v-2.1h1.2c0-0.9,0.1-1.6,0.2-2.1c0.1-0.4,0.4-0.8,0.7-1c0.3-0.3,0.6-0.5,1-0.6c0.5-0.1,1.3-0.2,2.4-0.2
			C69.9,66.7,70.2,66.7,70.7,66.7z"/>
		<path class="st1" d="M72.2,66.7h3.7v2.7h-3.7V66.7z M72.2,80v-9.4h3.7V80H72.2z"/>
		<path class="st1" d="M78,80v-9.4h3.4v1.5c0.5-0.6,0.9-1.1,1.4-1.3c0.5-0.3,1.1-0.4,1.8-0.4c1.2,0,2,0.3,2.7,1
			c0.6,0.6,0.9,1.6,0.9,2.8V80h-3.8v-5.2c0-0.5-0.1-0.9-0.4-1.2c-0.2-0.2-0.6-0.4-1-0.4c-0.4,0-0.8,0.1-1,0.4
			c-0.3,0.3-0.4,0.7-0.4,1.4V80H78z"/>
		<path class="st1" d="M97.1,71.8v-1.2h3.3v7.8c0,1-0.1,1.8-0.2,2.3c-0.1,0.5-0.4,0.9-0.7,1.3c-0.4,0.4-1,0.7-1.7,0.9
			c-0.7,0.2-1.5,0.3-2.4,0.3c-1,0-1.9-0.1-2.6-0.4c-0.7-0.3-1.3-0.6-1.7-1.1c-0.3-0.3-0.5-0.8-0.6-1.3h3.7c0,0.2,0.1,0.3,0.3,0.5
			c0.2,0.1,0.5,0.2,0.8,0.2c0.5,0,0.8-0.1,1.1-0.4c0.2-0.3,0.3-0.8,0.3-1.5c0-0.1,0-0.4,0-0.7c-0.3,0.3-0.6,0.6-1,0.7
			c-0.5,0.2-1,0.3-1.6,0.3c-1.2,0-2.2-0.4-3-1.2C90.4,77.5,90,76.4,90,75c0-1,0.2-1.8,0.5-2.5c0.4-0.7,0.9-1.3,1.5-1.6
			c0.7-0.4,1.3-0.5,2-0.5c0.7,0,1.3,0.1,1.8,0.4C96.3,71,96.7,71.4,97.1,71.8z M95.3,77c0.4,0,0.8-0.2,1.1-0.5
			c0.3-0.3,0.4-0.8,0.4-1.5c0-0.7-0.1-1.2-0.4-1.5c-0.3-0.3-0.7-0.5-1.1-0.5c-0.5,0-0.9,0.2-1.2,0.5c-0.3,0.3-0.4,0.9-0.4,1.6
			c0,0.6,0.2,1,0.5,1.4C94.4,76.8,94.8,77,95.3,77z"/>
		<path class="st1" d="M112.1,70.2c0.6,0,1.1,0.1,1.6,0.4c0.5,0.3,0.9,0.7,1.2,1.2c0.3,0.5,0.4,1.1,0.4,1.7c0,0.6-0.1,1.1-0.4,1.6
			c-0.3,0.5-0.7,0.9-1.2,1.2c-0.5,0.3-1.1,0.4-1.6,0.4c-0.6,0-1.1-0.1-1.6-0.4c-0.5-0.3-0.9-0.7-1.2-1.2c-0.3-0.5-0.4-1.1-0.4-1.6
			c0-0.6,0.2-1.1,0.4-1.7c0.3-0.5,0.7-0.9,1.2-1.2C111,70.3,111.5,70.2,112.1,70.2z"/>
		<path class="st1" d="M134.8,70.8h-4c-0.1-0.4-0.3-0.7-0.5-0.8c-0.3-0.2-0.6-0.3-1.1-0.3c-0.5,0-0.9,0.1-1.1,0.3
			c-0.2,0.1-0.3,0.3-0.3,0.6c0,0.2,0.1,0.4,0.2,0.5c0.2,0.2,0.7,0.4,1.4,0.5L131,72c1.5,0.4,2.6,0.9,3.2,1.6
			c0.6,0.7,0.9,1.5,0.9,2.4c0,0.7-0.2,1.4-0.5,1.9c-0.3,0.6-0.7,1-1.2,1.4c-0.5,0.3-1.1,0.6-1.8,0.8c-0.7,0.2-1.5,0.3-2.3,0.3
			c-0.9,0-1.7-0.1-2.5-0.3c-0.8-0.2-1.4-0.6-1.9-1c-0.5-0.4-0.9-0.9-1.2-1.5c-0.2-0.4-0.3-0.9-0.4-1.5h4.1c0.1,0.4,0.3,0.7,0.6,0.9
			c0.3,0.2,0.8,0.3,1.5,0.3c0.6,0,1-0.1,1.2-0.3c0.2-0.1,0.3-0.3,0.3-0.6c0-0.3-0.1-0.5-0.3-0.6c-0.2-0.2-0.6-0.3-1.4-0.5l-1.5-0.4
			c-0.8-0.2-1.5-0.4-2.2-0.8c-0.7-0.3-1.2-0.7-1.5-1.3c-0.3-0.5-0.5-1.1-0.5-1.9c0-0.7,0.2-1.4,0.5-1.9c0.3-0.6,0.7-1,1.2-1.4
			c0.5-0.3,1.1-0.6,1.7-0.7c0.6-0.1,1.3-0.2,2-0.2c0.8,0,1.5,0.1,2.2,0.2c0.7,0.2,1.2,0.4,1.6,0.6c0.4,0.3,0.7,0.6,1,0.9
			c0.2,0.3,0.4,0.7,0.6,1C134.6,69.9,134.7,70.3,134.8,70.8z"/>
		<path class="st1" d="M137.1,66.7h3.7v2.7h-3.7V66.7z M137.1,80v-9.4h3.7V80H137.1z"/>
		<path class="st1" d="M149.5,71.6v-4.5h3.7V80h-3.4v-1.3c-0.4,0.5-0.8,0.9-1.2,1.2c-0.4,0.2-1,0.4-1.7,0.4c-1.2,0-2.3-0.4-3.1-1.3
			c-0.8-0.9-1.2-2-1.2-3.5c0-1,0.2-1.9,0.5-2.7c0.4-0.8,0.9-1.4,1.5-1.8c0.7-0.4,1.4-0.6,2.1-0.6c0.6,0,1.2,0.1,1.6,0.4
			C148.9,70.9,149.2,71.2,149.5,71.6z M149.7,75.4c0-0.7-0.1-1.3-0.4-1.6c-0.3-0.3-0.7-0.5-1.1-0.5c-0.5,0-0.9,0.2-1.2,0.5
			c-0.3,0.4-0.4,0.9-0.4,1.7c0,0.7,0.1,1.3,0.4,1.6c0.3,0.3,0.6,0.5,1.1,0.5c0.5,0,0.9-0.2,1.2-0.5
			C149.5,76.7,149.7,76.1,149.7,75.4z"/>
		<path class="st1" d="M155.3,66.7h3.7v2.7h-3.7V66.7z M155.3,80v-9.4h3.7V80H155.3z"/>
		<path class="st1" d="M161.2,80v-9.4h3.4v1.5c0.5-0.6,0.9-1.1,1.4-1.3c0.5-0.3,1.1-0.4,1.8-0.4c1.2,0,2,0.3,2.7,1
			c0.6,0.6,0.9,1.6,0.9,2.8V80h-3.8v-5.2c0-0.5-0.1-0.9-0.4-1.2c-0.2-0.2-0.6-0.4-1-0.4c-0.4,0-0.8,0.1-1,0.4
			c-0.3,0.3-0.4,0.7-0.4,1.4V80H161.2z"/>
		<path class="st1" d="M180.2,71.8v-1.2h3.3v7.8c0,1-0.1,1.8-0.2,2.3c-0.1,0.5-0.4,0.9-0.7,1.3c-0.4,0.4-1,0.7-1.7,0.9
			c-0.7,0.2-1.5,0.3-2.4,0.3c-1,0-1.9-0.1-2.6-0.4c-0.7-0.3-1.3-0.6-1.7-1.1c-0.3-0.3-0.5-0.8-0.6-1.3h3.7c0,0.2,0.1,0.3,0.3,0.5
			c0.2,0.1,0.5,0.2,0.8,0.2c0.5,0,0.8-0.1,1.1-0.4c0.2-0.3,0.3-0.8,0.3-1.5c0-0.1,0-0.4,0-0.7c-0.3,0.3-0.6,0.6-1,0.7
			c-0.5,0.2-1,0.3-1.6,0.3c-1.2,0-2.2-0.4-3-1.2c-0.8-0.8-1.2-1.9-1.2-3.3c0-1,0.2-1.8,0.5-2.5c0.4-0.7,0.9-1.3,1.5-1.6
			c0.7-0.4,1.3-0.5,2-0.5c0.7,0,1.3,0.1,1.8,0.4C179.4,71,179.8,71.4,180.2,71.8z M178.4,77c0.4,0,0.8-0.2,1.1-0.5
			c0.3-0.3,0.4-0.8,0.4-1.5c0-0.7-0.1-1.2-0.4-1.5c-0.3-0.3-0.7-0.5-1.1-0.5c-0.5,0-0.9,0.2-1.2,0.5c-0.3,0.3-0.4,0.9-0.4,1.6
			c0,0.6,0.2,1,0.5,1.4C177.6,76.8,178,77,178.4,77z"/>
	</g>
</g>
</svg>
