<?xml version="1.0" encoding="UTF-8" standalone="no"?>
<svg width="80px" height="80px" viewBox="0 0 80 80" version="1.1" xmlns="http://www.w3.org/2000/svg" xmlns:xlink="http://www.w3.org/1999/xlink">
    <!-- Generator: Sketch 41.2 (35397) - http://www.bohemiancoding.com/sketch -->
    <title>rwdi-logo</title>
    <desc>Created with Sketch.</desc>
    <defs>
        <polygon id="path-1" points="80 80.1623162 80 0.162316208 0 0.162316208 1.97704062e-13 80.1623162 80 80.1623162"></polygon>
    </defs>
    <g id="Page-1" stroke="none" stroke-width="1" fill="none" fill-rule="evenodd">
        <g id="rwdi-logo">
            <g id="RWDI-logo-(RGB-with-safe-zone)">
                <mask id="mask-2" fill="white">
                    <use xlink:href="#path-1"></use>
                </mask>
                <g id="Clip-2"></g>
                <path d="M65.3368675,13.935997 L56.4501205,39.3080452 L65.0212048,39.3080452 L65.0298795,79.0328645 L79.3079518,79.0328645 L79.3118072,39.3172019 L74.1546988,39.3172019 L65.3368675,13.935997 Z M46.1537349,39.3080452 L39.7431325,22.2473223 L39.7431325,0.0121416238 L30.3373494,0.0131054792 C30.7706024,1.60587656 31.2549398,3.27864765 31.2549398,5.12684042 L31.2549398,5.27238259 C31.2549398,13.129732 27.0906024,18.2955151 20.7349398,20.9870814 L33.2655422,39.296479 L16.9180723,39.296479 L6.2973494,23.4126236 L0.0144578313,23.4126236 L0.0115662651,39.2911778 L8.86168675,39.2926236 C27.9624096,39.2261175 37.6992771,49.5653946 37.526747,65.3509368 L37.526747,65.6935874 C37.5898795,69.8396115 36.2568675,75.4309368 33.6322892,79.0396115 L51.0679518,79.0328645 L51.0679518,39.3080452 L46.1537349,39.3080452 Z M0,52.183226 L0.0043373494,79.0453946 L8.51373494,79.0453946 C17.3166265,79.0453946 23.1103614,74.2299729 23.1103614,65.7282862 L23.1103614,65.5769609 C23.1103614,57.149491 17.453012,52.183226 8.65012048,52.183226 L0,52.183226 Z M9.43855422,12.3080452 C14.1874699,12.3080452 17.0371084,9.97021391 17.0371084,6.24394885 L17.0371084,6.09792476 C17.0371084,2.00635849 14.0414458,-0.0394246413 9.36578313,0.000575358745 L0.0144578313,0.000575358745 L0.0144578313,12.3080452 L9.43855422,12.3080452 Z M51.6612048,20.5172019 L45.4833735,0.0121416238 L58.4626506,0.0121416238 L51.6612048,20.5172019 Z M79.380241,20.5393705 L72.4009639,0.00925005754 L79.380241,0.00925005754 L79.380241,20.5393705 L79.380241,20.5393705 Z" id="Fill-1" fill="#0173B9" mask="url(#mask-2)"></path>
            </g>
        </g>
    </g>
</svg>